<svg id="visual" viewBox="0 0 1440 800" width="1440" height="800" xmlns="http://www.w3.org/2000/svg" xmlns:xlink="http://www.w3.org/1999/xlink" version="1.1"><rect x="0" y="0" width="1440" height="800" fill="#fff"></rect><defs><linearGradient id="grad1_0" x1="44.4%" y1="100%" x2="100%" y2="0%"><stop offset="13.999999999999998%" stop-color="#ffffff" stop-opacity="1"></stop><stop offset="86%" stop-color="#ffffff" stop-opacity="1"></stop></linearGradient></defs><defs><linearGradient id="grad2_0" x1="0%" y1="100%" x2="55.6%" y2="0%"><stop offset="13.999999999999998%" stop-color="#ffffff" stop-opacity="1"></stop><stop offset="86%" stop-color="#ffffff" stop-opacity="1"></stop></linearGradient></defs><g transform="translate(1440, 800)"><path d="M-600 0C-566.1 -68.1 -532.2 -136.1 -508.1 -210.5C-484 -284.8 -469.8 -365.4 -424.3 -424.3C-378.8 -483.1 -302.1 -520.3 -226.2 -546C-150.3 -571.7 -75.1 -585.8 0 -600L0 0Z" fill="#1FAB8A"></path></g><g transform="translate(0, 0)"><path d="M600 0C562.3 65.9 524.7 131.8 501.7 207.8C478.6 283.8 470.2 369.8 424.3 424.3C378.3 478.7 294.7 501.7 217.7 525.7C140.8 549.7 70.4 574.9 0 600L0 0Z" fill="#1FAB8A"></path></g></svg>